# xmcd
#
# Track frame offsets: 
#        150
#        13112
#        34234
#        54556
#        72411
#        95693
#        118985
#        137457
#        153354
#        176566
#        206005
#
# Disc length: 3134 seconds
#
# Revision: 5
# Processed by: cddbd v1.5.2PL0 Copyright (c) Steve Scherf et al.
# Submitted via: ExactAudioCopyFreeDBPlugin 1.0
#
DISCID=9d0c3c0b
DTITLE=Fleetwood Mac - Experience
DYEAR=1996
DGENRE=Blues
TTITLE0=Man Of The World
TTITLE1=Got To Move
TTITLE2=Bleeding Heart
TTITLE3=Buzz Me
TTITLE4=I Held My Baby Last Night
TTITLE5=My Baby's A Good Un
TTITLE6=How Blue Can You Get
TTITLE7=My Baby's Sweet
TTITLE8=The World Keeps On Turning
TTITLE9=The Dream
TTITLE10=Don't Know Which Way To Go
EXTD=
EXTT0=
EXTT1=
EXTT2=
EXTT3=
EXTT4=
EXTT5=
EXTT6=
EXTT7=
EXTT8=
EXTT9=
EXTT10=
PLAYORDER=
